<svg xmlns="http://www.w3.org/2000/svg" version="1.1" viewBox="-5.0 -10.0 110.0 135.0">
 <path d="m48.809 67.219c-2.6719-0.019531-5.3203-0.53125-7.8086-1.5078-3.957-1.5391-7.1484-4.5703-8.8906-8.4414-1.3281-2.8984-1.8711-6.0938-1.5781-9.2695 0.37891-5.9727 3.2891-11.496 8-15.191 2.1289-1.7031 4.5664-2.9844 7.1797-3.7695 1.6172-0.5 3.3047-0.74609 5-0.73047 1.5508-0.007813 3.0703 0.44922 4.3594 1.3125 0.39453 0.1875 0.67188 0.5625 0.73047 1 0 0.050781 0.12109 0.10938 0.19141 0.12891 1 0.30078 2.0781 0.57031 3.0898 0.91016h-0.003906c2.9492 0.91797 5.6719 2.4375 8 4.4609 1.9531 1.7109 3.4102 3.9141 4.2227 6.3789 0.6875 2.0508 0.92578 4.2266 0.69922 6.3789-0.37109 3.4219-1.6641 6.6758-3.7383 9.4219-1.5547 2.0703-3.4922 3.8281-5.7031 5.1797-2.6953 1.6758-5.6953 2.8125-8.8281 3.3398-1.625 0.28516-3.2734 0.41797-4.9219 0.39844zm2.6602-36.719c-0.19922 0-0.39062-0.050781-0.57812 0-0.57812 0-1.1719 0-1.7383 0.058594h-0.003906c-1.6016 0.17188-3.168 0.58203-4.6484 1.2227-3.2852 1.3555-6.1367 3.5859-8.2383 6.4492-2.3555 3.1875-3.6406 7.0391-3.6719 11-0.078125 2.4062 0.38672 4.7969 1.3594 7 1.0859 2.4922 2.8633 4.625 5.1211 6.1406 2.1445 1.3789 4.5781 2.2578 7.1094 2.5703 2.4961 0.34375 5.0352 0.27344 7.5117-0.21094 2.4766-0.45703 4.8594-1.3242 7.0469-2.5703 2.957-1.6367 5.3945-4.0586 7.0508-7 1.6562-2.8125 2.3984-6.0703 2.1211-9.3203-0.21484-2.582-1.2695-5.0234-3-6.9492-1.6758-1.8242-3.7227-3.2656-6-4.2305-2.1367-0.91016-4.3516-1.6211-6.6211-2.1211-0.69141-0.17187-1.3711-0.33984-2-0.53906-0.55078-0.10938-0.91406-0.63672-0.82812-1.1914-0.039063-0.097656-0.011719-0.19922 0.007812-0.30859z"/>
 <path d="m38.609 69.078c-0.015625 0.39844-0.25 0.75-0.60938 0.92188-0.80859 0.48828-1.6289 1-2.4297 1.4883-2 1.2617-3.9219 2.5508-5.8789 3.8203-1.9609 1.2695-3.6484 2.3711-5.4805 3.5508-0.23828 0.1875-0.53906 0.26562-0.83594 0.21484s-0.55859-0.22266-0.71875-0.47656-0.20703-0.5625-0.125-0.85156c0.078125-0.28906 0.28125-0.53125 0.54688-0.66797 0.46094-0.30078 0.92969-0.57812 1.3789-0.87891 2.8086-1.8398 5.6016-3.6992 8.4219-5.5195 1.3398-0.87109 2.6992-1.6797 4.0703-2.5117v0.003906c0.33203-0.23047 0.76172-0.25 1.1094-0.058594 0.35156 0.19141 0.56641 0.56641 0.55078 0.96484z"/>
 <path d="m85.859 67.199c0.03125 0.37891-0.15625 0.74609-0.48438 0.94141-0.32422 0.19531-0.73438 0.1875-1.0547-0.019531-0.09375-0.050782-0.17969-0.11328-0.26172-0.17969-2.7852-2.2344-5.375-4.7031-7.7383-7.3828-0.83594-0.95312-1.5508-2.0078-2.1289-3.1367-0.23047-0.36719-0.19922-0.83984 0.078125-1.1719 0.23047-0.30859 0.62109-0.45703 1-0.37891 0.33984 0.078125 0.62891 0.30078 0.78906 0.60938 0.39453 0.71875 0.83984 1.4062 1.332 2.0586 0.92969 1.1211 1.9297 2.1914 2.9414 3.25h-0.003906c1.5859 1.582 3.2578 3.0781 5 4.4805 0.31641 0.20703 0.51562 0.55469 0.53125 0.92969z"/>
 <path d="m21 55.488 2.7812-0.14062v0.003906c0.28906-0.042968 0.58594 0.039063 0.8125 0.22656 0.23047 0.1875 0.37109 0.45703 0.39062 0.75 0.019531 0.29688-0.085937 0.58203-0.28516 0.79688-0.20312 0.21484-0.48438 0.33594-0.77734 0.33594l-3.4102 0.17187c-2.5781 0.125-5.1562 0.34766-7.7305 0.66016l-1.2109 0.14062v-0.003906c-0.36719 0.074218-0.74609-0.046876-1-0.32422-0.25391-0.27734-0.34766-0.66406-0.24219-1.0273 0.11328-0.39844 0.45703-0.6875 0.87109-0.72656 0.83984-0.10937 1.6797-0.21875 2.5195-0.30078 2.4219-0.21875 4.8516-0.41016 7.2695-0.62109z"/>
 <path d="m78.051 16.891c0.39453-0.003906 0.75391 0.22266 0.91797 0.57812 0.17969 0.33594 0.15234 0.74219-0.070312 1.0508-0.14844 0.19141-0.32031 0.36328-0.50781 0.51953l-4.4922 4.1328c-1.2227 1.1992-2.3633 2.4766-3.418 3.8281-0.12891 0.17969-0.28125 0.33984-0.44922 0.48047-0.38672 0.30078-0.92969 0.27734-1.293-0.050781-0.35547-0.3125-0.45703-0.82422-0.25-1.25 0.066407-0.12891 0.14844-0.25 0.24219-0.35938 1.9141-2.4414 4.0625-4.6836 6.418-6.6992 0.69922-0.60938 1.3789-1.2383 2.0703-1.8594 0.21484-0.23438 0.51562-0.36719 0.83203-0.37109z"/>
 <path d="m20.32 24.512c0.37109-0.011719 0.72656 0.16016 0.94922 0.45703 0.66016 0.83984 1.3398 1.6719 2 2.5195 1.5547 2.1094 3.3125 4.0625 5.2422 5.832 0.30469 0.23828 0.46875 0.61328 0.4375 1-0.023438 0.39453-0.27734 0.74219-0.64844 0.87891-0.37109 0.16016-0.80078 0.082031-1.0898-0.19922-0.48828-0.42969-1-0.87891-1.4414-1.3398-1.4609-1.4805-2.8203-3.0586-4.0703-4.7188-0.62109-0.80078-1.25-1.5898-1.8789-2.3789v-0.003906c-0.12109-0.14453-0.23437-0.30078-0.33984-0.45703-0.19922-0.32422-0.19922-0.73047 0-1.0508 0.16406-0.31641 0.48438-0.52344 0.83984-0.53906z"/>
 <path d="m56.75 76.531v-1.1484-0.003906c0-0.55078 0.44922-1 1-1 0.26562-0.019531 0.53125 0.070313 0.73047 0.24609 0.20312 0.17969 0.32422 0.42969 0.33984 0.69531v0.32813c0.058594 1.5352 0.19922 3.0625 0.41797 4.582 0.10938 1 0.14062 1.9297 0.23828 2.8906 0.10156 0.96094 0.21875 1.7617 0.35156 2.6484 0.12891 0.54297-0.17969 1.0938-0.70703 1.2695-0.28516 0.10547-0.60156 0.078126-0.86328-0.078124-0.26172-0.15625-0.4375-0.42188-0.47656-0.72266-0.1875-0.93359-0.31641-1.8789-0.39062-2.8281-0.12109-1.7109-0.30078-3.4219-0.51953-5.1211-0.070313-0.58984-0.10156-1.1914-0.14844-1.7891z"/>
 <path d="m78.879 38.191c0.023438-0.49219 0.37891-0.90625 0.85938-1 0.78125-0.21875 1.5586-0.44141 2.3516-0.62891v-0.003906c2.0234-0.46875 4.0742-0.82812 6.1406-1.0703 0.14062-0.011719 0.28125-0.011719 0.41797 0 0.53125 0 0.96875 0.41406 1 0.94141 0.074218 0.53516-0.29297 1.0312-0.82813 1.1211-0.62109 0.12109-1.25 0.17969-1.8789 0.26953-2.1602 0.30078-4.2969 0.75-6.3906 1.3516-0.25781 0.082031-0.53125 0.12109-0.80078 0.11719-0.54297-0.066406-0.92969-0.55469-0.87109-1.0977z"/>
 <path d="m45.59 19.641c0.10938-1.4297 0.21094-2.6406 0.28906-3.8516 0-0.57031 0.078125-1.1406 0.12109-1.6992 0.003906-0.14844 0.023438-0.29688 0.058594-0.44141 0.085937-0.56641 0.61328-0.96094 1.1797-0.87891 0.57031 0.082031 0.96484 0.61328 0.88281 1.1797 0 0.57812-0.058594 1.1484-0.10938 1.7188-0.070313 1-0.14844 2-0.23047 3v0.003906c-0.066406 1.0352-0.023438 2.0781 0.12891 3.1094 0.070313 0.57422-0.33984 1.1016-0.91406 1.1719-0.57812 0.074219-1.1055-0.33594-1.1758-0.91406-0.10156-0.82812-0.17187-1.7188-0.23047-2.3984z"/>
 <path d="m50.09 59.941c-6.1953-0.16016-11.441-4.6133-12.602-10.703-0.22656-1.1719-0.30859-2.3711-0.25-3.5664 0.007813-0.15625 0.027344-0.3125 0.0625-0.46094 0.023438-0.27344 0.15234-0.52344 0.35938-0.69922 0.20703-0.17969 0.47656-0.26562 0.75-0.24219 0.56641 0.046875 0.98828 0.54297 0.94141 1.1094 0.011719 0.20703 0.011719 0.41406 0 0.62109-0.14453 2.7617 0.71875 5.4766 2.4297 7.6484 1.6016 2.0664 3.9062 3.4688 6.4805 3.9414 3 0.60156 6.1172 0.058594 8.7383-1.5195 3.1367-1.7734 5.4531-4.7031 6.4609-8.1602 0.29687-0.97656 0.47266-1.9844 0.51953-3-0.011719-0.32422 0.125-0.63281 0.36719-0.84766 0.24609-0.21094 0.57422-0.30078 0.89062-0.24219 0.26562 0.046876 0.50391 0.19531 0.65625 0.41797 0.15234 0.22266 0.20703 0.49609 0.15625 0.76172-0.066406 0.875-0.19531 1.7422-0.37891 2.6016-1.1133 4.9258-4.4961 9.0312-9.1211 11.059-2.0312 0.90234-4.2383 1.3398-6.4609 1.2812z"/>
 <path d="m58.148 41.352c-0.027344 0.53906-0.45703 0.96875-1 1-0.64453-0.003906-1.1758-0.50781-1.2188-1.1523 0-0.55078 0.44922-1 1-1 0.64453 0.003906 1.1797 0.50781 1.2188 1.1523z"/>
 <path d="m44.148 39.738c0.26562 0 0.51953 0.10547 0.70703 0.29297s0.29297 0.44531 0.29297 0.70703c0 0.26562-0.10547 0.51953-0.29297 0.70703s-0.44141 0.29297-0.70703 0.29297c-0.57422 0-1.043-0.46484-1.043-1.043 0-0.57812 0.46875-1.0469 1.043-1.0469z"/>
</svg>